<?xml version="1.0" standalone="no"?><!-- Created with ZXing.Net (http://zxingnet.codeplex.com/) --><!DOCTYPE svg PUBLIC "-//W3C//DTD SVG 1.1//EN" "http://www.w3.org/Graphics/SVG/1.1/DTD/svg11.dtd"><svg xmlns="http://www.w3.org/2000/svg" version="1.2" baseProfile="tiny" shape-rendering="crispEdges" viewBox="0 0 250 250" viewport-fill="rgb(255,255,255)" viewport-fill-opacity="1" fill="rgb(0,0,0)" fill-opacity="1" style="background-color:rgb(255,255,255);background-color:rgba(1);"><rect x="22" y="22" width="5" height="35"/><rect x="22" y="62" width="5" height="20"/><rect x="22" y="87" width="5" height="5"/><rect x="22" y="112" width="5" height="10"/><rect x="22" y="127" width="10" height="5"/><rect x="22" y="137" width="5" height="15"/><rect x="22" y="162" width="10" height="5"/><rect x="22" y="172" width="5" height="5"/><rect x="22" y="182" width="5" height="5"/><rect x="22" y="192" width="5" height="35"/><rect x="27" y="22" width="30" height="5"/><rect x="27" y="52" width="30" height="5"/><rect x="27" y="62" width="5" height="5"/><rect x="27" y="77" width="10" height="5"/><rect x="27" y="107" width="10" height="5"/><rect x="27" y="142" width="5" height="25"/><rect x="27" y="192" width="30" height="5"/><rect x="27" y="222" width="30" height="5"/><rect x="32" y="32" width="15" height="15"/><rect x="32" y="72" width="5" height="20"/><rect x="32" y="97" width="5" height="5"/><rect x="32" y="112" width="5" height="5"/><rect x="32" y="132" width="5" height="10"/><rect x="32" y="147" width="5" height="10"/><rect x="32" y="167" width="5" height="10"/><rect x="32" y="182" width="10" height="5"/><rect x="32" y="202" width="15" height="15"/><rect x="37" y="62" width="5" height="10"/><rect x="37" y="117" width="5" height="5"/><rect x="37" y="127" width="5" height="10"/><rect x="37" y="142" width="10" height="5"/><rect x="37" y="152" width="5" height="20"/><rect x="37" y="177" width="5" height="10"/><rect x="42" y="67" width="5" height="15"/><rect x="42" y="87" width="5" height="10"/><rect x="42" y="102" width="15" height="5"/><rect x="42" y="112" width="20" height="5"/><rect x="42" y="127" width="10" height="5"/><rect x="42" y="137" width="5" height="10"/><rect x="42" y="152" width="5" height="15"/><rect x="42" y="172" width="5" height="10"/><rect x="47" y="77" width="5" height="5"/><rect x="47" y="97" width="5" height="10"/><rect x="47" y="122" width="5" height="20"/><rect x="47" y="167" width="5" height="5"/><rect x="52" y="27" width="5" height="30"/><rect x="52" y="62" width="10" height="5"/><rect x="52" y="72" width="30" height="5"/><rect x="52" y="82" width="5" height="5"/><rect x="52" y="92" width="20" height="5"/><rect x="52" y="122" width="5" height="5"/><rect x="52" y="132" width="5" height="5"/><rect x="52" y="142" width="10" height="5"/><rect x="52" y="152" width="40" height="5"/><rect x="52" y="162" width="5" height="5"/><rect x="52" y="172" width="5" height="5"/><rect x="52" y="182" width="5" height="5"/><rect x="52" y="197" width="5" height="30"/><rect x="57" y="97" width="10" height="5"/><rect x="57" y="117" width="10" height="5"/><rect x="57" y="127" width="20" height="5"/><rect x="57" y="167" width="5" height="5"/><rect x="62" y="27" width="5" height="10"/><rect x="62" y="42" width="5" height="20"/><rect x="62" y="87" width="5" height="20"/><rect x="62" y="122" width="15" height="10"/><rect x="62" y="157" width="5" height="5"/><rect x="62" y="172" width="5" height="5"/><rect x="62" y="187" width="5" height="10"/><rect x="62" y="207" width="10" height="5"/><rect x="62" y="217" width="5" height="10"/><rect x="67" y="32" width="5" height="10"/><rect x="67" y="57" width="10" height="5"/><rect x="67" y="77" width="40" height="5"/><rect x="67" y="107" width="5" height="10"/><rect x="67" y="142" width="5" height="15"/><rect x="67" y="167" width="20" height="5"/><rect x="67" y="177" width="5" height="15"/><rect x="67" y="197" width="5" height="15"/><rect x="72" y="37" width="25" height="5"/><rect x="72" y="47" width="5" height="15"/><rect x="72" y="82" width="5" height="10"/><rect x="72" y="102" width="10" height="10"/><rect x="72" y="132" width="5" height="5"/><rect x="72" y="147" width="5" height="15"/><rect x="72" y="177" width="10" height="5"/><rect x="72" y="197" width="5" height="5"/><rect x="72" y="217" width="20" height="5"/><rect x="77" y="27" width="5" height="20"/><rect x="77" y="62" width="5" height="5"/><rect x="77" y="87" width="5" height="10"/><rect x="77" y="122" width="20" height="5"/><rect x="77" y="137" width="15" height="10"/><rect x="77" y="162" width="10" height="10"/><rect x="77" y="202" width="15" height="5"/><rect x="77" y="212" width="15" height="10"/><rect x="82" y="22" width="5" height="10"/><rect x="82" y="52" width="5" height="10"/><rect x="82" y="82" width="10" height="5"/><rect x="82" y="92" width="5" height="10"/><rect x="82" y="117" width="5" height="15"/><rect x="82" y="147" width="5" height="25"/><rect x="82" y="182" width="5" height="10"/><rect x="82" y="207" width="5" height="20"/><rect x="87" y="62" width="5" height="30"/><rect x="87" y="97" width="25" height="5"/><rect x="87" y="112" width="5" height="5"/><rect x="87" y="127" width="5" height="20"/><rect x="87" y="157" width="15" height="5"/><rect x="87" y="172" width="5" height="5"/><rect x="87" y="182" width="10" height="5"/><rect x="87" y="192" width="5" height="15"/><rect x="92" y="22" width="10" height="5"/><rect x="92" y="52" width="5" height="5"/><rect x="92" y="62" width="5" height="5"/><rect x="92" y="72" width="5" height="10"/><rect x="92" y="117" width="5" height="15"/><rect x="92" y="137" width="5" height="5"/><rect x="92" y="167" width="5" height="5"/><rect x="92" y="177" width="5" height="20"/><rect x="92" y="207" width="5" height="5"/><rect x="97" y="27" width="5" height="10"/><rect x="97" y="42" width="5" height="10"/><rect x="97" y="82" width="5" height="5"/><rect x="97" y="177" width="35" height="5"/><rect x="97" y="197" width="5" height="5"/><rect x="102" y="37" width="5" height="5"/><rect x="102" y="52" width="5" height="30"/><rect x="102" y="87" width="5" height="5"/><rect x="102" y="107" width="5" height="10"/><rect x="102" y="122" width="5" height="5"/><rect x="102" y="142" width="10" height="10"/><rect x="102" y="162" width="20" height="5"/><rect x="102" y="172" width="5" height="10"/><rect x="102" y="207" width="5" height="10"/><rect x="102" y="222" width="30" height="5"/><rect x="107" y="22" width="15" height="5"/><rect x="107" y="32" width="5" height="5"/><rect x="107" y="57" width="10" height="5"/><rect x="107" y="67" width="5" height="10"/><rect x="107" y="82" width="5" height="5"/><rect x="107" y="102" width="5" height="5"/><rect x="107" y="117" width="10" height="5"/><rect x="107" y="127" width="10" height="5"/><rect x="107" y="157" width="5" height="10"/><rect x="107" y="187" width="10" height="5"/><rect x="107" y="202" width="10" height="10"/><rect x="107" y="217" width="5" height="10"/><rect x="112" y="27" width="5" height="5"/><rect x="112" y="37" width="10" height="5"/><rect x="112" y="52" width="5" height="10"/><rect x="112" y="142" width="5" height="5"/><rect x="112" y="152" width="5" height="5"/><rect x="112" y="182" width="5" height="10"/><rect x="112" y="197" width="5" height="20"/><rect x="117" y="47" width="5" height="5"/><rect x="117" y="62" width="10" height="5"/><rect x="117" y="72" width="5" height="5"/><rect x="117" y="107" width="5" height="5"/><rect x="117" y="132" width="5" height="5"/><rect x="117" y="147" width="5" height="5"/><rect x="117" y="182" width="15" height="5"/><rect x="117" y="192" width="5" height="10"/><rect x="117" y="207" width="10" height="5"/><rect x="117" y="217" width="5" height="10"/><rect x="122" y="32" width="5" height="5"/><rect x="122" y="52" width="5" height="20"/><rect x="122" y="77" width="5" height="25"/><rect x="122" y="112" width="5" height="5"/><rect x="122" y="122" width="10" height="5"/><rect x="122" y="137" width="30" height="5"/><rect x="122" y="202" width="5" height="10"/><rect x="127" y="42" width="10" height="10"/><rect x="127" y="57" width="5" height="5"/><rect x="127" y="67" width="5" height="15"/><rect x="127" y="87" width="10" height="5"/><rect x="127" y="97" width="5" height="15"/><rect x="127" y="117" width="5" height="15"/><rect x="127" y="142" width="5" height="25"/><rect x="127" y="187" width="5" height="5"/><rect x="127" y="197" width="5" height="5"/><rect x="127" y="212" width="5" height="15"/><rect x="132" y="27" width="10" height="10"/><rect x="132" y="52" width="5" height="5"/><rect x="132" y="102" width="5" height="5"/><rect x="132" y="112" width="5" height="5"/><rect x="132" y="132" width="5" height="10"/><rect x="132" y="147" width="5" height="25"/><rect x="132" y="192" width="5" height="5"/><rect x="132" y="217" width="5" height="5"/><rect x="137" y="22" width="5" height="25"/><rect x="137" y="57" width="10" height="10"/><rect x="137" y="77" width="5" height="5"/><rect x="137" y="92" width="10" height="5"/><rect x="137" y="107" width="10" height="5"/><rect x="137" y="117" width="5" height="5"/><rect x="137" y="142" width="20" height="5"/><rect x="137" y="152" width="20" height="5"/><rect x="137" y="167" width="30" height="5"/><rect x="137" y="177" width="10" height="5"/><rect x="137" y="207" width="10" height="10"/><rect x="137" y="222" width="10" height="5"/><rect x="142" y="22" width="5" height="10"/><rect x="142" y="37" width="5" height="5"/><rect x="142" y="47" width="5" height="25"/><rect x="142" y="82" width="5" height="30"/><rect x="142" y="127" width="10" height="5"/><rect x="142" y="147" width="5" height="25"/><rect x="142" y="187" width="5" height="5"/><rect x="142" y="197" width="5" height="30"/><rect x="147" y="22" width="15" height="5"/><rect x="147" y="42" width="5" height="10"/><rect x="147" y="62" width="5" height="25"/><rect x="147" y="97" width="5" height="5"/><rect x="147" y="122" width="5" height="40"/><rect x="147" y="172" width="5" height="5"/><rect x="147" y="182" width="10" height="5"/><rect x="147" y="197" width="5" height="10"/><rect x="147" y="217" width="5" height="5"/><rect x="152" y="32" width="10" height="10"/><rect x="152" y="47" width="5" height="25"/><rect x="152" y="77" width="10" height="5"/><rect x="152" y="92" width="5" height="5"/><rect x="152" y="107" width="5" height="20"/><rect x="152" y="157" width="10" height="5"/><rect x="152" y="197" width="5" height="5"/><rect x="152" y="207" width="5" height="10"/><rect x="157" y="27" width="5" height="25"/><rect x="157" y="82" width="5" height="5"/><rect x="157" y="102" width="5" height="5"/><rect x="157" y="137" width="5" height="5"/><rect x="157" y="177" width="30" height="5"/><rect x="157" y="202" width="5" height="5"/><rect x="162" y="42" width="5" height="35"/><rect x="162" y="97" width="40" height="5"/><rect x="162" y="107" width="5" height="10"/><rect x="162" y="122" width="5" height="10"/><rect x="162" y="162" width="5" height="30"/><rect x="162" y="197" width="5" height="5"/><rect x="162" y="207" width="5" height="10"/><rect x="167" y="27" width="5" height="10"/><rect x="167" y="42" width="5" height="10"/><rect x="167" y="57" width="15" height="5"/><rect x="167" y="67" width="5" height="10"/><rect x="167" y="82" width="10" height="5"/><rect x="167" y="102" width="5" height="5"/><rect x="167" y="117" width="5" height="5"/><rect x="167" y="127" width="5" height="10"/><rect x="167" y="142" width="10" height="25"/><rect x="167" y="187" width="5" height="5"/><rect x="167" y="202" width="10" height="5"/><rect x="167" y="217" width="5" height="10"/><rect x="172" y="22" width="5" height="10"/><rect x="172" y="47" width="5" height="20"/><rect x="172" y="72" width="35" height="5"/><rect x="172" y="87" width="15" height="5"/><rect x="172" y="107" width="5" height="10"/><rect x="172" y="122" width="5" height="10"/><rect x="172" y="172" width="5" height="15"/><rect x="172" y="197" width="5" height="15"/><rect x="172" y="217" width="15" height="5"/><rect x="177" y="22" width="10" height="5"/><rect x="177" y="32" width="5" height="5"/><rect x="177" y="47" width="10" height="5"/><rect x="177" y="102" width="5" height="5"/><rect x="177" y="117" width="5" height="10"/><rect x="177" y="132" width="10" height="5"/><rect x="177" y="147" width="15" height="5"/><rect x="177" y="157" width="5" height="10"/><rect x="177" y="182" width="30" height="5"/><rect x="177" y="207" width="5" height="5"/><rect x="182" y="42" width="5" height="15"/><rect x="182" y="62" width="5" height="5"/><rect x="182" y="77" width="5" height="5"/><rect x="182" y="92" width="10" height="10"/><rect x="182" y="117" width="5" height="5"/><rect x="182" y="127" width="5" height="10"/><rect x="182" y="142" width="10" height="10"/><rect x="182" y="157" width="5" height="5"/><rect x="182" y="187" width="5" height="20"/><rect x="182" y="222" width="10" height="5"/><rect x="187" y="67" width="10" height="10"/><rect x="187" y="82" width="10" height="5"/><rect x="187" y="102" width="5" height="10"/><rect x="187" y="152" width="5" height="5"/><rect x="187" y="162" width="5" height="10"/><rect x="187" y="202" width="20" height="5"/><rect x="192" y="22" width="5" height="35"/><rect x="192" y="62" width="5" height="25"/><rect x="192" y="107" width="10" height="10"/><rect x="192" y="122" width="5" height="15"/><rect x="192" y="142" width="5" height="5"/><rect x="192" y="157" width="5" height="5"/><rect x="192" y="172" width="10" height="5"/><rect x="192" y="192" width="5" height="5"/><rect x="192" y="207" width="15" height="5"/><rect x="192" y="217" width="5" height="5"/><rect x="197" y="22" width="30" height="5"/><rect x="197" y="52" width="30" height="5"/><rect x="197" y="62" width="10" height="5"/><rect x="197" y="77" width="5" height="5"/><rect x="197" y="92" width="5" height="25"/><rect x="197" y="137" width="5" height="5"/><rect x="197" y="162" width="5" height="25"/><rect x="197" y="222" width="5" height="5"/><rect x="202" y="32" width="15" height="15"/><rect x="202" y="92" width="10" height="5"/><rect x="202" y="112" width="10" height="15"/><rect x="202" y="132" width="10" height="5"/><rect x="202" y="152" width="5" height="10"/><rect x="202" y="187" width="5" height="35"/><rect x="207" y="67" width="20" height="5"/><rect x="207" y="87" width="5" height="10"/><rect x="207" y="127" width="5" height="25"/><rect x="207" y="162" width="5" height="20"/><rect x="207" y="187" width="5" height="5"/><rect x="207" y="212" width="5" height="5"/><rect x="207" y="222" width="5" height="5"/><rect x="212" y="62" width="10" height="20"/><rect x="212" y="122" width="10" height="5"/><rect x="212" y="137" width="10" height="5"/><rect x="212" y="167" width="5" height="10"/><rect x="212" y="197" width="5" height="5"/><rect x="217" y="82" width="5" height="15"/><rect x="217" y="112" width="10" height="5"/><rect x="217" y="127" width="5" height="30"/><rect x="217" y="162" width="10" height="5"/><rect x="217" y="172" width="5" height="25"/><rect x="217" y="202" width="5" height="10"/><rect x="217" y="217" width="5" height="10"/><rect x="222" y="27" width="5" height="30"/><rect x="222" y="77" width="5" height="10"/><rect x="222" y="92" width="5" height="10"/><rect x="222" y="107" width="5" height="10"/><rect x="222" y="127" width="5" height="5"/><rect x="222" y="142" width="5" height="5"/><rect x="222" y="152" width="5" height="5"/><rect x="222" y="167" width="5" height="10"/><rect x="222" y="182" width="5" height="5"/><rect x="222" y="207" width="5" height="5"/></svg>